<svg width="32" height="32" viewBox="0 0 32 32" xmlns="http://www.w3.org/2000/svg" fill="none"><path d="M16 2c-7.734 0-14 6.266-14 14s6.266 14 14 14 14-6.266 14-14-6.266-14-14-14zm-5.313 20.118c-.086.147-.209.268-.357.352-.148.084-.315.128-.485.126-.173.002-.343-.045-.491-.135-.11-.064-.207-.149-.284-.25-.077-.101-.134-.217-.166-.34-.033-.123-.04-.252-.023-.378s.059-.248.124-.358l.956-1.589c.048-.082.117-.15.2-.197.083-.047.176-.072.271-.072h.141c.693 0 1.178.417 1.319.821l-1.205 2.019zm8.091-3.125l-6.258.007h-4.159c-.131.001-.26-.026-.381-.076-.121-.051-.229-.126-.32-.22s-.161-.206-.207-.329c-.046-.123-.067-.253-.061-.384.02-.525.478-.922 1-.922h3.015l3.574-6.084-1.158-1.972c-.261-.449-.145-1.042.302-1.324.11-.071.234-.119.363-.142.129-.022.262-.018.389.012.128.03.248.086.354.164.106.078.194.176.261.289l.619 1.057h.007l.619-1.057c.067-.112.155-.21.261-.288.105-.077.225-.133.352-.163.127-.03.259-.034.388-.012.129.022.252.07.362.14.444.282.559.875.296 1.326l-1.157 1.972-1.125 1.918-2.443 4.166v.007h3.601c.451 0 1.017.243 1.246.633l.02.041c.202.343.316.579.316.922-.003.111-.028.221-.073.323l-.002-.002zm4.859.007h-1.694v.007l1.239 2.107c.133.222.174.487.114.739-.061.252-.217.47-.437.607-.152.093-.327.142-.505.142-.169 0-.336-.044-.483-.127-.148-.083-.271-.204-.358-.349l-1.831-3.116-1.137-1.938-1.468-2.509c-.213-.358-.328-.766-.335-1.182-.007-.416.094-.828.294-1.193.29-.512.512-.646.512-.646l3.264 5.521h2.807c.525 0 .976.404 1 .922.005.132-.017.263-.064.386s-.118.236-.21.33c-.091.095-.201.17-.323.222-.121.051-.252.078-.384.077h-.002z" fill="#fff"/></svg>