<svg xmlns="http://www.w3.org/2000/svg" viewBox="0 0 70 55" enable-background="new 0 0 70 55"><style type="text/css">.st0{fill:#ED4C5C;}</style><path class="st0" d="M43.8 42.7h-5.8v-18.9c0-.3-.3-.6-.6-.6h-4.7c-.3 0-.6.3-.6.6v18.9h-5.8c-.5 0-.8.6-.5 1l8.8 11.1.2.2.3.1c.1 0 .2 0 .3-.1.1 0 .2-.1.2-.2l8.8-11.1c.2-.4-.1-1-.6-1zm14.6-26.6c-3.6-9.4-12.7-16.1-23.4-16.1s-19.8 6.7-23.4 16.1c-6.7 1.8-11.6 7.9-11.6 15.2 0 8.6 7 15.6 15.6 15.6h3.1c.3 0 .6-.3.6-.6v-4.7c0-.3-.3-.6-.6-.6h-3.1c-2.6 0-5.1-1-7-2.9-1.8-1.9-2.8-4.4-2.7-7.1.1-2.1.8-4 2-5.6 1.3-1.7 3.1-2.9 5.2-3.4l3-.8 1.1-2.9c.7-1.8 1.6-3.4 2.8-5 1.2-1.5 2.5-2.8 4.1-3.9 3.2-2.3 7-3.5 10.9-3.5s7.7 1.2 11 3.5c1.6 1.1 2.9 2.4 4.1 3.9 1.2 1.5 2.1 3.2 2.8 5l1.1 2.9 3 .8c4.2 1.1 7.2 5 7.2 9.4 0 2.6-1 5-2.8 6.9-.9.9-2 1.6-3.1 2.1-1.2.5-2.4.7-3.7.7h-3.1c-.3 0-.6.3-.6.6v4.7c0 .3.3.6.6.6h3.1c8.6 0 15.6-7 15.6-15.6-.2-7.4-5.1-13.5-11.8-15.3z"/></svg>