<svg width="47" height="53" viewBox="0 0 47 53" xmlns="http://www.w3.org/2000/svg" fill="none"><path d="M44.026 18.96h-1.275v-6.142l-.011-.116c.002-.247-.086-.486-.248-.672l-10.231-11.673-.008-.008-.207-.173-.068-.041-.205-.086-.056-.019-.239-.03h-25.149c-1.149 0-2.081.933-2.081 2.078v16.879h-1.275c-1.643 0-2.974 1.329-2.974 2.97v15.449c0 1.639 1.333 2.97 2.974 2.97h1.275v10.574c0 1.145.932 2.078 2.081 2.078h34.34c1.147 0 2.081-.933 2.081-2.078v-10.574h1.275c1.641 0 2.974-1.329 2.974-2.97v-15.449c0-1.639-1.331-2.968-2.974-2.968zm-37.696-16.881h24.107v10.635c0 .575.466 1.038 1.041 1.038h9.193v5.206h-34.342v-16.879zm15.57 28.479c-2.527-.901-4.194-2.298-4.194-4.504 0-2.589 2.188-4.547 5.751-4.547 1.737 0 2.976.338 3.878.764l-.767 2.747c-.983-.478-2.063-.724-3.157-.719-1.489 0-2.211.697-2.211 1.463 0 .969.833 1.395 2.818 2.139 2.685.991 3.924 2.386 3.924 4.527 0 2.546-1.938 4.707-6.11 4.707-1.737 0-3.45-.473-4.307-.946l.699-2.815c1.181.602 2.484.926 3.809.946 1.579 0 2.414-.655 2.414-1.645 0-.946-.72-1.485-2.547-2.116zm-17.909-1.036c0-5.158 3.698-8.017 8.296-8.017 1.782 0 3.134.359 3.743.653l-.722 2.724c-.913-.383-1.895-.575-2.886-.563-2.705 0-4.824 1.643-4.824 5.021 0 3.017 1.803 4.932 4.847 4.932 1.06 0 2.188-.201 2.886-.496l.498 2.702c-.609.291-2.053.653-3.878.653-5.255.002-7.96-3.286-7.96-7.61zm36.679 20.841h-34.34v-10.013h34.34v10.013zm-2.779-13.455h-4.014l-4.869-15.178h3.766l1.848 6.419c.517 1.823.991 3.536 1.352 5.426h.068c.384-1.804.843-3.592 1.374-5.359l1.94-6.485h3.651l-5.116 15.176z" fill="#ED4C5C"/></svg>