<svg width="32" height="32" viewBox="0 0 32 32" xmlns="http://www.w3.org/2000/svg" fill="none"><path d="M3 3.718v24.562l.046.15.121.099.156.016.138-.073 12.789-12.473-12.789-12.474-.138-.073-.156.016-.121.099-.046.15zm18.613 7.157l-16.036-8.835-.01-.006c-.276-.15-.539.224-.313.441l12.571 12.02 3.788-3.621zm-16.358 18.649c-.228.218.035.591.313.441l.01-.006 16.035-8.835-3.788-3.622-12.569 12.021zm22.831-15.087l-4.478-2.466-4.211 4.029 4.211 4.027 4.478-2.464c1.218-.673 1.218-2.452 0-3.125z" fill="#fff"/></svg>