<svg width="14" height="14" viewBox="0 0 14 14" xmlns="http://www.w3.org/2000/svg" fill="none"><path d="M9.333 4.667c.928 0 1.818.369 2.475 1.025.656.656 1.025 1.547 1.025 2.475v4.083h-2.333v-4.083c0-.309-.123-.606-.342-.825-.219-.219-.516-.342-.825-.342-.309 0-.606.123-.825.342-.219.219-.342.516-.342.825v4.083h-2.333v-4.083c0-.928.369-1.819 1.025-2.475.656-.656 1.547-1.025 2.475-1.025zM1.167 5.25h2.333v7h-2.333v-7zM2.333 3.5c.644 0 1.167-.522 1.167-1.167 0-.644-.522-1.167-1.167-1.167-.644 0-1.167.522-1.167 1.167 0 .644.522 1.167 1.167 1.167z" fill="#101010"/></svg>