<svg width="48" height="55" viewBox="0 0 48 55" xmlns="http://www.w3.org/2000/svg" fill="none"><path d="M44.886 19.316h-1.297v-6.257l-.012-.119c.002-.252-.087-.496-.251-.687l-10.412-11.891-.008-.008c-.132-.143-.301-.249-.488-.304l-.057-.019-.243-.031h-25.59c-1.169 0-2.118.951-2.118 2.118v17.198h-1.297c-1.672 0-3.026 1.354-3.026 3.026v15.74c0 1.67 1.356 3.026 3.026 3.026h1.297v10.776c0 1.167.949 2.118 2.118 2.118h34.943c1.167 0 2.118-.951 2.118-2.118v-10.776h1.297c1.672 0 3.026-1.356 3.026-3.026v-15.74c0-1.672-1.356-3.026-3.026-3.026zm-38.357-17.198h24.53v10.835c0 .585.474 1.058 1.06 1.058h9.355v5.305h-34.945v-17.198zm25.998 28.178c0 3.026-1.102 5.115-2.63 6.405-1.664 1.383-4.197 2.041-7.294 2.041-1.854 0-3.166-.119-4.059-.233v-15.532c1.314-.21 3.026-.327 4.834-.327 3.001 0 4.949.539 6.474 1.689 1.643 1.219 2.676 3.166 2.676 5.957zm-27.616 8.283v-15.602c1.102-.188 2.651-.327 4.832-.327 2.206 0 3.778.423 4.832 1.266 1.008.798 1.687 2.112 1.687 3.66 0 1.55-.515 2.862-1.454 3.753-1.22 1.15-3.026 1.666-5.138 1.666-.469 0-.891-.023-1.219-.071v5.655h-3.541zm36.561 12.731h-34.943v-10.202h34.943v10.202zm3.068-25.611h-6.078v3.614h5.678v2.91h-5.678v6.357h-3.587v-15.813h9.664v2.933z" fill="#ED4C5C"/></svg>