<svg xmlns="http://www.w3.org/2000/svg" viewBox="0 0 47.7 59.3" enable-background="new 0 0 47.7 59.3"><style type="text/css">.st0{fill-rule:evenodd;clip-rule:evenodd;fill:#ED4C5C;}</style><path class="st0" d="M24.8.1l21.9 7.5c.5.2 1 .8 1 1.4v31.1c0 .6-.4 1.3-.8 1.7l-22.2 17.2c-.2.2-.5.3-.8.3-.3 0-.6-.1-.8-.3l-22.3-17.3c-.4-.3-.8-1.1-.8-1.6v-31.1c0-.6.4-1.2 1-1.4l21.9-7.5c.2-.1.6-.1.9-.1s.8 0 1 .1zm-1 53.7l19.2-15v-27.5l-19.2-6.6-19.2 6.6v27.6l19.2 14.9zM16.8 30.7l-5 5c-.1.1-.1.2-.1.4l.1.4 2.2 2.2c.2.2.5.2.7 0l5-5c3.6 2.3 8.4 1.8 11.5-1.3 3.6-3.6 3.6-9.5 0-13.1s-9.5-3.6-13.1 0c-3.1 3-3.5 7.8-1.3 11.4zm11.5-8.6c-2-2-5.3-2-7.3 0s-2 5.3 0 7.3 5.3 2 7.3 0 2-5.2 0-7.3z"/></svg>