<svg width="14" height="14" viewBox="0 0 14 14" xmlns="http://www.w3.org/2000/svg" fill="none"><path d="M13.417 1.75c-.559.394-1.177.695-1.832.893-.351-.404-.818-.69-1.338-.82-.519-.13-1.066-.097-1.566.094s-.93.531-1.23.974c-.301.443-.458.968-.451 1.503v.583c-1.025.027-2.041-.201-2.957-.662-.916-.461-1.704-1.141-2.293-1.981 0 0-2.333 5.25 2.917 7.583-1.201.816-2.632 1.224-4.083 1.167 5.25 2.917 11.667 0 11.667-6.708-.001-.162-.016-.325-.047-.484.595-.587 1.015-1.328 1.213-2.141z" fill="#101010"/></svg>